<svg
    fill-rule="evenodd"
    stroke-linejoin="round"
    stroke-miterlimit="2"
    clip-rule="evenodd"
    viewBox="0 0 162 181"
    xmlns="http://www.w3.org/2000/svg"
>
    <defs></defs>
    <path
        fill-rule="nonzero"
        d="M 96.162 150.272 C 85.942 145.184 75.714 145.184 65.494 150.272 C 55.266 155.36 55.266 162.896 65.494 172.865 C 75.714 182.841 85.942 182.841 96.162 172.865 C 106.382 162.895 106.382 155.36 96.162 150.272 Z M 60.798 144.208 C 50.578 149.296 45.113 146.145 44.41 134.749 C 43.707 123.346 46.873 117.866 53.906 118.302 C 60.938 118.731 66.404 121.889 70.293 127.761 C 74.183 133.633 71.018 139.12 60.798 144.208 Z M 117.246 134.749 C 116.544 146.145 111.078 149.296 100.858 144.208 C 90.638 139.12 87.473 133.633 91.363 127.761 C 95.253 121.889 100.718 118.731 107.751 118.302 C 114.784 117.866 117.949 123.346 117.246 134.749 Z M 140.179 107.15 C 130.661 113.458 125.551 122.31 124.849 133.714 C 124.146 145.11 130.669 148.874 144.416 145.006 C 158.164 141.139 163.274 132.286 159.746 118.45 C 156.219 104.606 149.704 100.842 140.179 107.15 L 140.179 107.15 Z M 36.808 133.714 C 36.105 122.31 30.995 113.458 21.478 107.15 C 11.952 100.842 5.429 104.606 1.909 118.45 C -1.618 132.287 3.492 141.139 17.239 145.006 C 30.988 148.874 37.51 145.11 36.808 133.714 L 36.808 133.714 Z M 86.667 115.3 C 82.837 114.309 78.818 114.309 74.989 115.3 C 71.092 116.29 71.092 119.73 74.989 125.601 C 78.879 131.473 82.777 131.473 86.667 125.601 C 90.557 119.729 90.557 116.291 86.667 115.3 Z M 62.344 108 C 61.256 104.133 59.311 100.768 56.509 97.891 C 53.699 95.014 50.726 96.73 47.59 103.038 C 44.447 109.346 46.392 112.718 53.425 113.155 C 60.458 113.584 63.431 111.868 62.344 108 L 62.344 108 Z M 105.147 97.891 C 102.345 100.768 100.4 104.133 99.313 108.001 C 98.225 111.868 101.198 113.584 108.231 113.155 C 115.264 112.719 117.209 109.346 114.066 103.038 C 110.923 96.73 107.95 95.014 105.147 97.891 L 105.147 97.891 Z M 137.28 81.126 C 146.798 87.434 146.798 93.742 137.28 100.051 C 127.755 106.359 121.424 106.359 118.289 100.051 C 115.146 93.742 115.146 87.434 118.289 81.126 C 121.424 74.818 127.755 74.818 137.28 81.126 Z M 24.376 100.051 C 14.858 93.742 14.858 87.434 24.376 81.126 C 33.894 74.818 40.224 74.818 43.367 81.126 C 46.51 87.434 46.51 93.742 43.367 100.051 C 40.224 106.359 33.894 106.359 24.377 100.051 L 24.376 100.051 Z M 99.313 73.176 C 100.368 76.988 102.376 80.47 105.147 83.293 C 107.95 86.163 110.923 84.446 114.067 78.138 C 117.209 71.83 115.264 68.458 108.231 68.028 C 101.198 67.593 98.225 69.308 99.313 73.176 Z M 56.509 83.293 C 59.281 80.47 61.289 76.989 62.344 73.176 C 63.431 69.308 60.458 67.593 53.424 68.029 C 46.392 68.458 44.447 71.83 47.59 78.139 C 50.726 84.446 53.698 86.162 56.509 83.293 L 56.509 83.293 Z M 124.849 47.47 C 125.551 58.866 130.661 67.718 140.179 74.026 C 149.704 80.335 156.219 76.57 159.747 62.734 C 163.274 48.89 158.164 40.038 144.417 36.17 C 130.669 32.302 124.146 36.066 124.849 47.47 L 124.849 47.47 Z M 21.477 74.026 C 30.995 67.718 36.105 58.866 36.807 47.47 C 37.51 36.066 30.987 32.302 17.24 36.17 C 3.492 40.038 -1.618 48.89 1.91 62.734 C 5.43 76.57 11.952 80.334 21.477 74.026 Z M 74.989 65.876 C 78.879 66.868 82.777 66.868 86.667 65.876 C 90.557 64.886 90.557 61.454 86.667 55.576 C 82.777 49.703 78.879 49.703 74.989 55.576 C 71.092 61.454 71.092 64.886 74.989 65.876 Z M 100.859 36.969 C 111.079 31.881 116.544 35.039 117.246 46.435 C 117.949 57.831 114.784 63.318 107.751 62.882 C 100.718 62.445 95.253 59.295 91.363 53.416 C 87.473 47.544 90.638 42.064 100.858 36.969 L 100.859 36.969 Z M 44.41 46.435 C 45.113 35.039 50.578 31.881 60.798 36.969 C 71.018 42.064 74.183 47.544 70.293 53.416 C 66.403 59.296 60.938 62.446 53.906 62.882 C 46.873 63.318 43.707 57.831 44.41 46.435 L 44.41 46.435 Z M 65.494 30.905 C 75.714 36 85.942 36 96.162 30.905 C 106.382 25.817 106.382 18.288 96.162 8.312 C 85.942 -1.657 75.714 -1.657 65.494 8.312 C 55.266 18.288 55.266 25.817 65.494 30.905 L 65.494 30.905 Z"
        style="stroke-opacity: 0.52; fill: rgb(255, 255, 255)"
    ></path>
</svg>
